<svg width="29" height="42" viewBox="0 0 29 42" fill="none" xmlns="http://www.w3.org/2000/svg">
<path d="M15.2115 19.4419C13.7325 20.0718 12.0542 20.7859 9.87899 20.7859C8.96903 20.7841 8.06353 20.6599 7.187 20.4167L8.69143 35.7825C8.74466 36.4246 9.03879 37.0236 9.51532 37.4599C9.99185 37.8966 10.616 38.1388 11.2638 38.1384C11.2638 38.1384 13.3968 38.2488 14.1086 38.2488C14.8747 38.2488 17.1717 38.1384 17.1717 38.1384C17.8194 38.1384 18.4434 37.8962 18.9198 37.4599C19.3962 37.0232 19.6903 36.4246 19.7435 35.7825L21.3548 18.8027C20.6348 18.5581 19.9081 18.3955 19.0888 18.3955C17.6719 18.395 16.5303 18.8804 15.2115 19.4419Z" fill="#F8F8F8"/>
<path d="M2.53302 12.8867L2.55896 12.9108L2.57587 12.9208C2.56285 12.908 2.54847 12.8965 2.53302 12.8867Z" fill="#0D0C22"/>
<path d="M28.3147 11.4682L28.0885 10.3314C27.8849 9.31145 27.4237 8.34768 26.3712 7.97903C26.034 7.86112 25.6509 7.81042 25.3923 7.56634C25.1337 7.32222 25.0572 6.94311 24.9975 6.59153C24.8869 5.94626 24.7826 5.30045 24.6691 4.65631C24.5711 4.10252 24.4934 3.48038 24.2381 2.97235C23.9059 2.29015 23.2164 1.89121 22.5306 1.62726C22.179 1.49675 21.8204 1.38637 21.4564 1.29664C19.7432 0.846967 17.9419 0.681654 16.1793 0.587453C14.0638 0.471333 11.9426 0.506302 9.83208 0.692153C8.26121 0.834292 6.6067 1.00626 5.11392 1.54678C4.5683 1.74464 4.00612 1.98211 3.59123 2.40146C3.0822 2.91668 2.91603 3.7135 3.28769 4.35597C3.55192 4.81225 3.99948 5.13459 4.47416 5.34784C5.09247 5.62262 5.7382 5.83169 6.40062 5.97161C8.24514 6.37719 10.1556 6.53644 12.04 6.60421C14.1285 6.68808 16.2205 6.6201 18.2991 6.40087C18.8131 6.34469 19.3263 6.27726 19.8384 6.19866C20.4416 6.10664 20.8288 5.32195 20.651 4.77531C20.4383 4.1218 19.8667 3.86831 19.2202 3.96695C19.125 3.98184 19.0303 3.9956 18.935 4.0094L18.8663 4.01932C18.6473 4.04684 18.4284 4.07257 18.2094 4.09645C17.757 4.14493 17.3036 4.18463 16.849 4.21546C15.8309 4.28598 14.81 4.31853 13.7898 4.32016C12.7872 4.32016 11.7841 4.29205 10.7837 4.2265C10.3273 4.19672 9.87198 4.1589 9.41777 4.11297C9.21115 4.09147 9.00512 4.06889 8.79904 4.04354L8.60297 4.01873L8.56033 4.01271L8.35703 3.98347C7.9416 3.92123 7.52617 3.84957 7.11519 3.76307C7.07373 3.75391 7.0366 3.73098 7.01003 3.69802C6.98345 3.66506 6.96895 3.62402 6.96895 3.58177C6.96895 3.53953 6.98345 3.49853 7.01003 3.46557C7.0366 3.43261 7.07373 3.40964 7.11519 3.40048H7.12293C7.47911 3.32498 7.83804 3.26052 8.19805 3.2043C8.3181 3.1856 8.43848 3.1672 8.5592 3.14921H8.56252C8.78798 3.13432 9.01453 3.09412 9.23886 3.06764C11.1906 2.86569 13.154 2.79683 15.1153 2.86159C16.0674 2.88911 17.019 2.94479 17.9668 3.04066C18.1706 3.06162 18.3734 3.08366 18.5761 3.10842C18.6536 3.11779 18.7317 3.12884 18.8098 3.13821L18.9671 3.1608C19.4258 3.22873 19.882 3.31122 20.3358 3.40822C21.0083 3.55366 21.8717 3.60106 22.171 4.33396C22.2661 4.5665 22.3094 4.82492 22.3619 5.06904L22.4292 5.38034C22.4309 5.38595 22.4322 5.39168 22.433 5.39745C22.5915 6.13215 22.75 6.86686 22.9086 7.6016C22.9203 7.65586 22.9208 7.71195 22.9094 7.76633C22.8985 7.82071 22.8762 7.87224 22.8442 7.91767C22.8123 7.96314 22.7711 8.00154 22.7236 8.03049C22.676 8.05943 22.6226 8.0783 22.5676 8.08595H22.5629L22.4662 8.09917L22.3704 8.11184C22.0668 8.15116 21.7628 8.18789 21.4586 8.22207C20.8593 8.29 20.259 8.34881 19.6578 8.39838C18.4633 8.49723 17.2663 8.56206 16.0669 8.59289C15.4557 8.60908 14.8448 8.61661 14.234 8.61548C11.8029 8.6136 9.37392 8.47305 6.95898 8.1945C6.69753 8.16363 6.43611 8.13058 6.17466 8.09695C6.37737 8.12289 6.02732 8.07713 5.95643 8.06721C5.79026 8.04408 5.62408 8.02003 5.45791 7.99501C4.9001 7.91181 4.34566 7.80933 3.78899 7.71952C3.11597 7.6093 2.47234 7.66443 1.86361 7.99501C1.36391 8.26703 0.959495 8.68421 0.704264 9.19077C0.441717 9.73079 0.363635 10.3188 0.246195 10.899C0.128755 11.4792 -0.0540281 12.1036 0.0152248 12.6992C0.164201 13.9848 1.06764 15.0296 2.36709 15.2632C3.58955 15.4836 4.8187 15.6622 6.05112 15.8142C10.8924 16.4041 15.7835 16.4747 20.6399 16.0248C21.0354 15.988 21.4304 15.948 21.8246 15.9046C21.9478 15.8912 22.0727 15.9052 22.1895 15.9459C22.3064 15.9866 22.4128 16.0528 22.5007 16.1396C22.5886 16.2265 22.6563 16.3318 22.6979 16.4479C22.7395 16.564 22.7547 16.6879 22.7421 16.8105L22.6189 17.9996C22.3712 20.4025 22.1235 22.8052 21.8759 25.2078C21.6173 27.7308 21.357 30.2536 21.0952 32.7761C21.0214 33.4868 20.9475 34.197 20.8737 34.9073C20.8028 35.6063 20.7928 36.3279 20.6593 37.0189C20.4488 38.1052 19.7093 38.7728 18.6304 39.0167C17.6418 39.2405 16.632 39.358 15.6182 39.3672C14.4943 39.3731 13.371 39.3237 12.2471 39.3296C11.0474 39.3363 9.57785 39.2263 8.6517 38.3378C7.83803 37.5577 7.7256 36.3358 7.6148 35.2796C7.46709 33.8812 7.32068 32.4828 7.17557 31.0845L6.36131 23.31L5.83453 18.2796C5.8257 18.1964 5.81683 18.1143 5.80851 18.0305C5.74539 17.4305 5.31831 16.843 4.64533 16.8733C4.06924 16.8987 3.41455 17.3858 3.48212 18.0305L3.87262 21.7599L4.68019 29.4745C4.91028 31.6659 5.13978 33.8574 5.36873 36.0493C5.41305 36.4692 5.45459 36.8905 5.50109 37.31C5.75422 39.6048 7.51565 40.8413 9.69693 41.1893C10.9709 41.3935 12.2759 41.4353 13.5687 41.4562C15.226 41.4826 16.9 41.5462 18.5301 41.2475C20.9457 40.8066 22.758 39.202 23.0166 36.7127C23.0906 35.9945 23.1646 35.2754 23.2382 34.5568C23.4838 32.1791 23.7289 29.8014 23.9741 27.4235L24.7747 19.6538L25.1422 16.0931C25.1602 15.9165 25.2355 15.7505 25.3558 15.6196C25.4764 15.4887 25.6362 15.3999 25.8111 15.3663C26.502 15.2323 27.1621 15.0037 27.6537 14.4807C28.4358 13.6481 28.5913 12.5626 28.3147 11.4682ZM2.33165 12.2364C2.34216 12.2314 2.32277 12.3212 2.31449 12.3631C2.31281 12.2997 2.31613 12.2435 2.33165 12.2364ZM2.39867 12.7521C2.40422 12.7483 2.42083 12.7703 2.43798 12.7968C2.41196 12.7725 2.39535 12.7544 2.39812 12.7521H2.39867ZM2.4646 12.8386C2.4884 12.8789 2.50114 12.9042 2.4646 12.8386V12.8386ZM2.59697 12.9456H2.60029C2.60029 12.9494 2.60639 12.9533 2.60861 12.9571C2.60491 12.9529 2.60084 12.949 2.59642 12.9456H2.59697ZM25.7792 12.7857C25.5311 13.0205 25.1569 13.1296 24.7877 13.1842C20.6444 13.7958 16.4407 14.1055 12.2521 13.9688C9.25438 13.8669 6.28819 13.5357 3.32036 13.1186C3.02956 13.0778 2.71441 13.0249 2.51443 12.8117C2.13776 12.4094 2.32277 11.5993 2.42083 11.1134C2.51056 10.6681 2.68228 10.0746 3.21457 10.0113C4.04544 9.9143 5.01035 10.2631 5.83235 10.3871C6.82199 10.5373 7.81533 10.6576 8.81237 10.748C13.0675 11.1337 17.394 11.0737 21.6303 10.5094C22.4023 10.4062 23.1718 10.2863 23.9383 10.1496C24.6216 10.0278 25.3785 9.79914 25.7914 10.5028C26.0744 10.9822 26.1118 11.6236 26.068 12.1653C26.0546 12.4013 25.9512 12.6233 25.7783 12.7857H25.7792Z" fill="#414141"/>
</svg>
