<svg width="33" height="7" viewBox="0 0 33 7" fill="none" xmlns="http://www.w3.org/2000/svg">
<path d="M33 4C33 6.20914 23.3573 7 17 7C10.6427 7 1 6.20914 1 4C1 1.79086 10.6427 1 17 1C23.3573 1 33 1.79086 33 4Z" fill="#F3D1D1"/>
<path d="M31.75 3C31.75 3.17522 31.6567 3.36561 31.412 3.57213C31.1665 3.77938 30.7943 3.97944 30.3045 4.16731C29.3269 4.54223 27.9443 4.84504 26.3474 5.08111C23.1581 5.5526 19.1711 5.75 16 5.75C12.8289 5.75 8.84189 5.5526 5.65258 5.08111C4.05567 4.84504 2.67311 4.54223 1.69553 4.16731C1.20569 3.97944 0.833528 3.77938 0.588011 3.57213C0.343343 3.36561 0.25 3.17522 0.25 3C0.25 2.82478 0.343343 2.63439 0.588011 2.42787C0.833528 2.22062 1.20569 2.02056 1.69553 1.83269C2.67311 1.45777 4.05567 1.15496 5.65258 0.918885C8.84189 0.447397 12.8289 0.25 16 0.25C19.1711 0.25 23.1581 0.447397 26.3474 0.918885C27.9443 1.15496 29.3269 1.45777 30.3045 1.83269C30.7943 2.02056 31.1665 2.22062 31.412 2.42787C31.6567 2.63439 31.75 2.82478 31.75 3Z" stroke="#363636" stroke-width="0.5"/>
</svg>
