<svg width="33" height="32" viewBox="0 0 33 32" fill="none" xmlns="http://www.w3.org/2000/svg">
<path d="M29.5 16.9994C36 21.499 34 30.7498 19 29.9998C11.8293 29.6413 5 23.4557 5 15.9998C5 8.54399 11.6526 1.70309 19 2.99983C27.5 4.5 23.3334 12.7306 29.5 16.9994Z" fill="#D1E3F3"/>
<path fill-rule="evenodd" clip-rule="evenodd" d="M5.75951 13.2139C7.40881 13.2139 8.74705 14.5521 8.74705 16.2014V26.4396C8.74705 27.2319 8.43229 27.9918 7.87202 28.5521C7.31175 29.1124 6.55186 29.4271 5.75951 29.4271C4.96717 29.4271 4.20727 29.1124 3.647 28.5521C3.08673 27.9918 2.77197 27.2319 2.77197 26.4396V16.2014C2.77197 14.5521 4.11021 13.2139 5.75951 13.2139Z" stroke="#505050" stroke-linecap="round" stroke-linejoin="round"/>
<path fill-rule="evenodd" clip-rule="evenodd" d="M21.1179 19.1866C20.8377 19.1866 20.5602 19.2418 20.3013 19.3491C20.0424 19.4564 19.8072 19.6137 19.6091 19.812C19.411 20.0103 19.254 20.2456 19.1469 20.5047C19.0399 20.7637 18.9849 21.0412 18.9852 21.3215V26.4395C18.9962 26.8385 18.927 27.2357 18.7818 27.6076C18.6367 27.9795 18.4184 28.3185 18.14 28.6046C17.8616 28.8907 17.5287 29.1182 17.161 29.2735C16.7932 29.4287 16.398 29.5088 15.9988 29.5088C15.5996 29.5088 15.2044 29.4287 14.8367 29.2735C14.4689 29.1182 14.136 28.8907 13.8576 28.6046C13.5792 28.3185 13.361 27.9795 13.2158 27.6076C13.0706 27.2357 13.0015 26.8385 13.0124 26.4395V21.3215C13.0124 19.1715 13.8665 17.1095 15.3868 15.5892C16.9071 14.0689 18.969 13.2148 21.119 13.2148C23.269 13.2148 25.331 14.0689 26.8513 15.5892C28.3716 17.1095 29.2257 19.1715 29.2257 21.3215V26.4395C29.2257 27.2318 28.9109 27.9917 28.3506 28.552C27.7904 29.1122 27.0305 29.427 26.2381 29.427C25.4458 29.427 24.6859 29.1122 24.1256 28.552C23.5653 27.9917 23.2506 27.2318 23.2506 26.4395V21.3215C23.2509 21.0412 23.1959 20.7637 23.0889 20.5047C22.9818 20.2456 22.8248 20.0103 22.6267 19.812C22.4287 19.6137 22.1935 19.4564 21.9346 19.3491C21.6757 19.2418 21.3982 19.1866 21.1179 19.1866Z" stroke="#505050" stroke-linecap="round" stroke-linejoin="round"/>
<path d="M5.91839 2.57031C8.06897 2.57031 9.27965 3.77876 9.27965 5.93157C9.27965 8.07992 8.07121 9.29284 5.91839 9.29284C3.76781 9.29284 2.55713 8.08215 2.55713 5.93157C2.55713 3.77876 3.76557 2.57031 5.91839 2.57031Z" stroke="#505050" stroke-linecap="round" stroke-linejoin="round"/>
</svg>
