<svg width="32" height="32" viewBox="0 0 32 32" fill="none" xmlns="http://www.w3.org/2000/svg">
<path d="M31.9991 18.0007C31.9991 21.1105 32.1289 24.7418 29.2992 27.4743C26.1836 30.4829 21.4509 29.9674 17.9596 29.9674C14.4684 29.9674 9.95625 29.6158 7.6999 27.4743C5.52329 25.4085 5 21.1108 5 18.001C5 14.6551 5.22468 9.12772 7.6999 7.03131C9.91019 5.15929 14.7239 5.03694 17.9595 5.03694C21.1952 5.03694 25.7051 4.56618 28.7592 7.03111C32.0324 9.67291 31.9991 14.6548 31.9991 18.0007Z" fill="#F3D1D1"/>
<path d="M2.64475 23.9156C2.77863 24.9596 3.26045 25.9281 4.01242 26.6646C4.7644 27.4012 5.74265 27.8628 6.78926 27.975C9.76337 28.2883 12.8427 28.6151 16.0003 28.6151C19.1557 28.6151 22.2372 28.2861 25.2113 27.975C26.2582 27.8636 27.2369 27.4022 27.989 26.6655C28.7411 25.9288 29.2227 24.9599 29.3558 23.9156C29.6736 21.3555 29.9869 18.7103 29.9869 16.0003C29.9869 13.2925 29.6736 10.6451 29.3558 8.08496C29.2224 7.0405 28.7408 6.07151 27.9888 5.33452C27.2367 4.59752 26.2582 4.13556 25.2113 4.02325C22.2372 3.71442 19.1557 3.3877 16.0003 3.3877C12.8449 3.3877 9.76337 3.71666 6.78926 4.02772C5.74237 4.13916 4.76369 4.60055 4.01156 5.33724C3.25944 6.07393 2.77786 7.04284 2.64475 8.0872C2.32697 10.6451 2.01367 13.2925 2.01367 16.0003C2.01367 18.7081 2.32697 21.3555 2.64475 23.9156Z" stroke="#505050" stroke-linecap="round" stroke-linejoin="round"/>
<path d="M2.70752 7.50488L13.2299 15.8029C14.0194 16.425 14.9952 16.7634 16.0004 16.7634C17.0055 16.7634 17.9814 16.425 18.7709 15.8029L29.2933 7.50488" stroke="#505050" stroke-linecap="round" stroke-linejoin="round"/>
</svg>
