<svg width="32" height="32" viewBox="0 0 32 32" fill="none" xmlns="http://www.w3.org/2000/svg">
<path d="M2.64535 23.9352C2.77936 24.9803 3.26164 25.9497 4.01434 26.6869C4.76704 27.4242 5.74622 27.8863 6.79383 27.9986C9.77079 28.3122 12.853 28.6392 16.0137 28.6392C19.1721 28.6392 22.2566 28.3099 25.2335 27.9986C26.2814 27.887 27.261 27.4252 28.0139 26.6878C28.7667 25.9504 29.2487 24.9806 29.382 23.9352C29.7001 21.3727 30.0137 18.725 30.0137 16.0123C30.0137 13.3019 29.7001 10.652 29.382 8.08946C29.2484 7.044 28.7664 6.07408 28.0136 5.33638C27.2609 4.59868 26.2815 4.13627 25.2335 4.02386C22.2566 3.71474 19.1721 3.3877 16.0137 3.3877C12.8553 3.3877 9.77079 3.71698 6.79383 4.02834C5.74594 4.13988 4.76632 4.60171 4.01348 5.33911C3.26063 6.07651 2.7786 7.04634 2.64535 8.0917C2.32727 10.652 2.01367 13.3019 2.01367 16.0123C2.01367 18.7227 2.32727 21.3727 2.64535 23.9352Z" stroke="#414141" stroke-width="2" stroke-linecap="round" stroke-linejoin="round"/>
<path d="M2.70752 7.50488L13.2299 15.8029C14.0194 16.425 14.9952 16.7634 16.0004 16.7634C17.0055 16.7634 17.9814 16.425 18.7709 15.8029L29.2933 7.50488" stroke="#414141" stroke-width="2" stroke-linecap="round" stroke-linejoin="round"/>
</svg>
