<svg width="297" height="219" viewBox="0 0 297 219" fill="none" xmlns="http://www.w3.org/2000/svg">
<path d="M293.785 155.683C283.936 191.412 253.911 223.279 201.762 217.62C149.613 211.962 103.519 177.591 108.396 132.64C113.274 87.6887 157.966 42.2632 210.115 47.9214C262.264 53.5795 307.944 104.32 293.785 155.683Z" fill="#F5DADA"/>
<path d="M285.904 153.823C278.056 170.806 267.745 186.674 252.933 197.594C238.135 208.503 218.803 214.505 192.841 211.688C166.856 208.869 142.308 198.608 124.874 183.476C107.445 168.346 97.1557 148.378 99.5723 126.106C101.996 103.768 114.32 81.2837 132.54 65.0879C150.756 48.8959 174.83 39.0194 200.74 41.8306C226.654 44.6422 253.148 61.4406 270.565 83.1845C287.99 104.938 296.222 131.493 285.904 153.823Z" stroke="#505050"/>
<path d="M136.345 148.421L182.356 59.4053L264.875 111.824L203.881 191.258L164.107 179.144" fill="#E44D26"/>
<path d="M168.725 172.024L219.222 92.5303L252.953 113.957L200.86 181.743" fill="#F16529"/>
<path d="M186.749 86.3613L212.678 102.832L206.119 113.159L191.516 103.883L185.753 115.066L199.4 123.735L192.855 134.039L169.746 119.359L186.749 86.3613ZM166.907 124.834L177.278 131.422L172.761 140.141L182.351 150.574L175.502 161.355L158.061 141.976" fill="#EBEBEB"/>
<path d="M238.516 119.246L212.632 102.804L206.072 113.13L231.001 128.965L238.516 119.246ZM223.35 138.949L199.354 123.706L192.794 134.033L205.532 142.124L195.802 154.778L182.305 150.546L175.485 161.281L200.366 168.85" fill="white"/>
<path d="M196.198 118.127C183.889 165.992 141.321 188.516 88.9833 175.056C36.6455 161.596 -2.20954 99.197 10.1001 51.3319C22.4097 3.46675 85.3232 -6.20427 137.661 7.2556C189.999 20.7155 208.508 70.2618 196.198 118.127Z" fill="url(#paint0_linear_1494_1810)"/>
<path d="M188.351 117.205C182.227 141.015 168.59 158.489 150.004 168.349C131.412 178.211 107.817 180.479 81.7443 173.774C55.723 167.082 33.0218 148.212 18.3579 125.031C3.69206 101.847 -2.89051 74.422 3.2208 50.6586C9.31771 26.9512 27.9446 12.6671 51.6422 5.98023C75.3481 -0.709001 104.069 0.228728 130.173 6.942C156.2 13.6355 173.792 29.2897 183.358 49.2079C192.93 69.1372 194.481 93.3667 188.351 117.205Z" stroke="#505050"/>
<path d="M155.452 43.6997L121.977 138.095L80.4456 138.871L44.5464 118.195L60.7864 19.3496L155.452 43.6997Z" fill="#264DE4"/>
<path d="M116.176 130.044L144.782 49.3791L106.087 39.4258L82.6165 130.671L116.176 130.044Z" fill="#2965F1"/>
<path d="M69.2859 68.1689L67.2997 80.2932L93.8204 87.1149L96.8687 75.2639L69.2859 68.1689Z" fill="#EBEBEB"/>
<path d="M103.039 51.2767L102.998 51.2662L73.3215 43.6328L71.3504 55.7612L99.9902 63.128L103.039 51.2767Z" fill="#EBEBEB"/>
<path d="M85.7801 118.372L88.9517 106.042L88.8962 106.042L76.6142 99.0835L78.2016 89.4146L71.7881 87.7649L66.3049 86.3545L63.1789 105.39L85.7216 118.373L85.7801 118.372Z" fill="#EBEBEB"/>
<path d="M108.373 90.8584L103.044 105.875L88.9081 106.042L85.7367 118.372L111.764 117.888L112.457 115.931L123.268 85.4476L124.376 82.3396L132.685 58.9028L102.998 51.2666L99.9493 63.1179L116.649 67.4134L112.449 79.2718L96.8277 75.2537L93.7793 87.1047L108.373 90.8584Z" fill="white"/>
<defs>
<linearGradient id="paint0_linear_1494_1810" x1="39" y1="-4.00098" x2="133" y2="175.999" gradientUnits="userSpaceOnUse">
<stop offset="0.356763" stop-color="#D1E3F3"/>
<stop offset="1" stop-color="#E0ECF7" stop-opacity="0.95"/>
</linearGradient>
</defs>
</svg>
