<svg width="893" height="18" viewBox="0 0 893 18" fill="none" xmlns="http://www.w3.org/2000/svg">
<path fill-rule="evenodd" clip-rule="evenodd" d="M673.249 0.072067C547.702 0.276692 511.805 0.409805 442.146 0.929424C369.957 1.46791 318.295 2.00769 236.324 3.07993C217.321 3.32849 196.975 3.56439 173.121 3.81261C85.4977 4.72442 68.4466 4.96739 40.1201 5.70749C26.0852 6.07426 13.9475 6.32808 7.14468 6.39727C1.09643 6.4587 0 6.49738 0 6.64928C0 6.78351 9.67335 6.90112 14.9643 6.83116C16.8604 6.80617 21.9974 6.74492 26.3804 6.6952C30.7634 6.6454 40.4087 6.51177 47.8144 6.39821C65.2535 6.13069 73.6265 6.04634 103.598 5.83621C153.983 5.48296 192.045 5.1435 238.797 4.63043C256.027 4.44131 278.904 4.19025 289.634 4.07247C371.02 3.1791 470.433 2.38248 531.18 2.13701C604.897 1.83899 833.748 1.57552 829.882 1.79299C828.351 1.87923 802.164 2.52068 786.465 2.85652C772.045 3.16505 747.953 3.61006 718.315 4.11529C704.26 4.35498 684.969 4.68669 675.447 4.85246C639.677 5.47529 627.896 5.66846 607.573 5.96562C513.949 7.33441 452.106 8.52718 366.028 10.6241C314.863 11.8705 272.927 13.3013 226.127 15.3974C199.519 16.5892 196.927 16.8008 199.546 17.5681C201.25 18.0673 214.675 18.132 241.754 17.7714C291.239 17.1126 337.742 16.6016 382.79 16.2216C411.047 15.9833 414.79 15.9433 443.52 15.5734C454.251 15.4352 472.799 15.2333 484.739 15.1247L506.448 14.9273L477.595 14.8495C433.872 14.7316 386.97 14.7387 371.524 14.8657C320.385 15.2862 292.57 15.6098 247.137 16.3128C236.308 16.4803 227.172 16.603 226.835 16.5854C223.581 16.4154 296.406 13.8456 331.147 12.9046C409.572 10.7802 490.332 9.19516 614.443 7.34432C625.778 7.17527 648.531 6.80549 665.005 6.52263C681.479 6.23969 707.447 5.79425 722.712 5.53259C781.466 4.52566 798.972 4.15061 855.438 2.68894C891.604 1.75275 891.797 1.74474 892.782 1.12905C893.866 0.45211 890.969 0.144959 882.668 0.057164C874.783 -0.0263231 727.153 -0.0158141 673.249 0.072067ZM508.79 14.859C509.474 14.8796 510.463 14.8788 510.989 14.8573C511.514 14.8358 510.955 14.8189 509.746 14.8198C508.537 14.8208 508.107 14.8384 508.79 14.859Z" fill="#808080"/>
</svg>
