<svg width="125" height="120" viewBox="0 0 125 120" fill="none" xmlns="http://www.w3.org/2000/svg">
<path d="M124.684 51.5013C124.684 81.0673 108.074 113.064 75.5831 119.081C43.0925 125.097 -5.72285 97.4347 8.53248 77.3719C26.0488 52.7196 -2.02656 18.8237 49.7129 5.56843C88.0713 -4.25872 124.684 11.0241 124.684 51.5013Z" fill="#F7E0E0"/>
<path d="M118.471 49.1449C118.471 78.5718 101.945 110.276 69.7788 116.232C53.6852 119.213 33.4822 113.849 19.0717 105.221C11.8681 100.908 6.16609 95.8108 3.14568 90.5921C0.139671 85.3983 -0.197689 80.1247 3.22681 75.3051C7.67798 69.0405 9.22181 62.2002 9.86534 55.3065C10.1562 52.191 10.2638 49.0535 10.3702 45.9536C10.3814 45.6271 10.3926 45.301 10.404 44.9754C10.5238 41.5519 10.6655 38.1799 11.072 34.9013C11.884 28.3519 13.7484 22.2149 18.5713 16.8923C23.4001 11.5633 31.2442 6.99597 44.1237 3.69635C63.2155 -1.19483 81.8208 0.177363 95.629 7.75267C109.41 15.3131 118.471 29.0809 118.471 49.1449Z" stroke="#505050"/>
<path d="M52.5022 94.9654C59.189 94.4983 64.2422 88.7709 63.7819 82.1811L62.9479 70.243L50.8342 71.0893C44.1475 71.5564 39.0942 77.2838 39.5546 83.8736C40.0149 90.4634 45.8155 95.4326 52.5022 94.9654Z" fill="#0ACF83"/>
<path d="M37.8866 59.9967C37.4262 53.4068 42.4795 47.6795 49.1663 47.2123L61.2799 46.3661L62.9479 70.2422L50.8342 71.0885C44.1475 71.5556 38.347 66.5865 37.8866 59.9967Z" fill="#A259FF"/>
<path d="M36.2186 36.1207C35.7583 29.5309 40.8116 23.8035 47.4983 23.3364L59.6119 22.4901L61.2799 46.3663L49.1663 47.2125C42.4795 47.6797 36.679 42.7105 36.2186 36.1207Z" fill="#F24E1E"/>
<path d="M59.6119 22.4902L71.7256 21.644C78.4123 21.1768 84.2129 26.146 84.6733 32.7358C85.1336 39.3256 80.0803 45.053 73.3936 45.5201L61.2799 46.3664L59.6119 22.4902Z" fill="#FF7262"/>
<path d="M86.3412 56.6118C86.8016 63.2016 81.7483 68.9289 75.0616 69.3961C68.3748 69.8632 62.5743 64.8941 62.1139 58.3043C61.6535 51.7145 66.7068 45.9871 73.3936 45.5199C80.0803 45.0528 85.8809 50.0219 86.3412 56.6118Z" fill="#1ABCFE"/>
</svg>
