<svg width="123" height="128" viewBox="0 0 123 128" fill="none" xmlns="http://www.w3.org/2000/svg">
<path d="M122.003 75.38C114.64 111.579 98.6879 125.077 61.875 127.532C29.2044 129.71 11.011 100.043 7.88281 61.8805C4.81505 24.4552 69.9399 -18.4933 77.8268 9.11646C87.8509 44.2077 129.634 37.8578 122.003 75.38Z" fill="#F5F5DA"/>
<path d="M114.009 75.2813C110.338 93.3321 104.542 105.63 95.1522 113.733C85.7614 121.836 72.6979 125.81 54.3378 127.034C38.1872 128.11 25.6273 121.327 16.6952 109.533C7.74805 97.7185 2.43655 80.8636 0.877235 61.8406C0.122553 52.6338 3.56097 43.0431 9.32271 34.2395C15.0815 25.4403 23.1348 17.4697 31.532 11.5193C39.9381 5.56252 48.6395 1.66482 55.686 0.948464C59.205 0.590718 62.2729 1.02993 64.6858 2.36045C67.0857 3.68382 68.8885 5.91652 69.8421 9.25477C74.3916 25.1812 85.4327 32.683 95.3808 39.4421C96.5206 40.2165 97.6461 40.9813 98.7459 41.7478C104.114 45.4892 108.851 49.2561 111.792 54.3812C114.72 59.4836 115.898 65.9929 114.009 75.2813Z" stroke="#505050"/>
<path d="M69.1823 63.6725L59.3238 65.9406L60.3061 50.4943L67.3677 45.3639C68.94 44.4351 70.2215 45.1507 70.1928 46.995L69.1823 63.6725Z" fill="#FFA000"/>
<path d="M59.3283 65.9394L22.4655 74.3997L60.3091 50.4957L59.3283 65.9394Z" fill="#F57F17"/>
<path d="M81.4842 58.6005C83.2647 58.1696 84.2341 59.2214 83.6357 60.9482L68.9277 100.822L41.0793 101.298C40.1201 101.285 38.1053 100.333 38.1053 100.333C38.1053 100.333 36.4792 99.11 36.0217 98.3538L22.4652 74.3993L81.4842 58.6005Z" fill="#FFCA28"/>
<path d="M60.3088 50.4953L22.4653 74.3992L59.4588 28.8832C60.6576 27.5031 61.6302 27.8532 61.6302 29.6899L60.3088 50.4953Z" fill="#FFA000"/>
</svg>
