<svg width="25" height="25" viewBox="0 0 25 25" fill="none" xmlns="http://www.w3.org/2000/svg">
<ellipse cx="15" cy="12.5" rx="10" ry="11.5" fill="#F3D1D1"/>
<path d="M2.81988 6.27087C1.79474 6.88531 1.79633 7.77038 2.81511 8.38801C3.81796 8.99291 4.86539 9.61372 6.05927 10.1868C7.25315 10.7598 8.54572 11.2613 9.80964 11.742C11.0943 12.2323 12.9408 12.2323 14.2206 11.7404C15.4734 11.2581 16.7516 10.7567 17.9407 10.1868C19.0481 9.6434 20.1291 9.04792 21.1801 8.40233C22.2053 7.78789 22.2053 6.90123 21.1849 6.28519C20.1334 5.63323 19.0507 5.03292 17.9407 4.48642C16.7469 3.91335 15.4543 3.41193 14.1904 2.9296C12.9058 2.44091 11.0592 2.44091 9.77939 2.93278C8.52662 3.41352 7.24837 3.91654 6.05927 4.48642C4.87176 5.05629 3.82274 5.67074 2.81988 6.27087Z" stroke="#505050" stroke-linecap="round" stroke-linejoin="round"/>
<path d="M21.949 13.7653C20.8065 14.4122 19.6353 15.0071 18.439 15.5482C17.1496 16.1212 15.7647 16.6227 14.4069 17.1034C13.0204 17.5969 11.0194 17.5953 9.62659 17.1066C8.25761 16.6242 6.85679 16.1228 5.56263 15.5498C4.26847 14.9767 3.13349 14.3559 2.04626 13.751" stroke="#505050" stroke-linecap="round" stroke-linejoin="round"/>
<path d="M21.949 18.7396C20.8618 19.3397 19.7268 19.9525 18.439 20.5224C17.1496 21.0939 15.7647 21.5969 14.4069 22.0776C13.0204 22.5695 11.0194 22.5695 9.62659 22.0792C8.25761 21.5985 6.85679 21.0971 5.56263 20.524C4.26847 19.9509 3.13349 19.3285 2.04626 18.7236" stroke="#505050" stroke-linecap="round" stroke-linejoin="round"/>
</svg>
