<svg width="128" height="116" viewBox="0 0 128 116" fill="none" xmlns="http://www.w3.org/2000/svg">
<path d="M127.438 58.889C127.438 89.8908 99.2044 120.636 68.4613 115.023C33.9538 108.722 7.60266 83.03 7.60266 52.0282C7.60266 21.0264 40.0661 1.50781 71.5984 1.50781C103.131 1.50781 127.438 27.8872 127.438 58.889Z" fill="#DADAF5"/>
<path d="M120.155 58.3265C120.155 73.6814 113.159 88.9941 102.342 99.7698C91.5276 110.543 76.9413 116.739 61.7681 113.968C27.4248 107.698 1.31958 82.1585 1.31958 51.4657C1.31958 36.1589 9.32857 23.6671 21.2866 14.9844C33.2509 6.29715 49.1448 1.44531 64.8153 1.44531C96.0509 1.44531 120.155 27.5798 120.155 58.3265Z" stroke="#505050"/>
<path d="M91.7779 67.2239C88.0124 68.1314 85.2155 69.2878 83.0641 70.9831C82.4389 71.4555 81.3168 71.7565 81.4649 72.6833C81.9407 72.9628 82.1528 73.5673 82.62 74.0014C83.4359 74.7999 84.7603 75.8185 85.8269 76.2452C87.0119 76.7413 88.1975 77.2372 89.4037 77.6262C91.5324 78.2767 93.7677 78.3897 95.8495 79.0527C97.0563 79.441 98.3132 80.0204 99.5326 80.4565C100.149 80.6978 100.641 81.2277 101.359 81.2893L101.321 81.1472C100.879 80.8075 100.62 80.2158 100.166 79.8288C99.572 79.4794 98.9895 79.1776 98.3947 78.8283C96.5432 77.3411 94.4278 76.1783 92.2485 75.3382C90.4727 74.6948 86.8182 74.1482 85.7401 72.5549C85.7401 72.5549 85.6804 72.5203 85.6212 72.4853C86.6242 72.1148 87.7379 71.4095 88.6438 70.8615C90.1187 70.0082 91.5934 69.7151 93.1155 68.8494C93.8125 68.4592 94.497 68.0214 95.1813 67.5837L95.0669 67.1568C93.9969 66.5278 93.0839 65.5519 91.9793 64.9831C89.0353 63.5333 85.8701 62.1946 82.701 61.2127C80.9971 60.6519 78.9615 60.536 77.2027 60.1428C76.5657 60.0079 75.5922 60.1165 75.138 59.7295C74.0164 58.9112 73.1801 57.6603 72.2419 56.5891C70.187 54.3418 68.1019 51.798 66.1954 49.359C64.8584 47.7333 63.848 46.0201 62.3617 44.5876C55.3844 37.8101 48.8384 34.3251 39.5127 31.6863C37.5157 31.1534 35.3442 31.2774 33.007 31.3444C31.8258 31.6097 30.6313 31.8284 29.4498 32.0938C28.6127 31.962 27.623 31.2609 26.8539 31.0092C23.7317 30.0144 15.8669 28.1548 15.2131 33.569C14.7771 36.9918 18.7236 39.1895 20.2183 40.468C21.3061 41.3462 22.6648 42.3045 23.5566 43.3882C24.0999 44.1068 24.4223 44.9367 24.9784 45.703C26.2861 47.59 27.6102 49.7282 29.1138 51.411C29.8951 52.2696 30.7357 53.1632 31.6319 53.8896C32.1458 54.3112 32.8638 54.3735 33.2332 55.1898C32.8332 56.3144 33.1677 57.7509 33.1112 59.0375C32.8651 64.8512 35.3003 71.3196 38.7398 74.6197C39.8054 75.6053 42.2818 77.7402 44.399 76.1043C46.2743 74.6865 45.0819 72.1067 45.0534 69.5711C45.0414 68.9633 44.8463 68.6092 45.0249 68.1544L45.0504 68.2496C46.0609 69.4026 47.0587 70.509 48.0226 71.6748C50.0951 73.6115 53.268 75.3557 55.8043 76.4057C57.1555 76.9587 58.4379 78.1921 59.9805 78.3383L59.9422 78.1957L59.8485 78.2208C59.4535 77.8688 58.9818 77.792 58.519 77.5596C57.4488 76.9313 56.2336 76.1378 55.3249 75.3639C52.6495 73.232 50.1308 70.7535 47.7742 68.1296C46.6323 66.8591 45.545 65.4209 44.5433 64.1126C44.1097 63.6178 43.8809 62.764 43.3374 62.6047C42.9157 63.8365 42.129 65.0139 41.9579 66.4329C41.6169 68.7114 42.197 71.2518 42.5691 73.9494C42.3949 74.0475 42.4753 73.9745 42.4073 74.0951C40.8097 74.1156 39.8759 72.6877 38.9584 71.5092C36.6529 68.5157 34.9695 63.1682 35.1427 58.951C35.203 57.8666 35.7665 54.3587 34.951 53.5598C34.4289 52.7332 33.3535 52.4618 32.6488 51.8878C31.7996 51.1489 30.8396 50.1858 30.1519 49.3015C28.3176 46.9445 26.9681 44.1525 25.0406 41.8205C24.1489 40.7368 22.8243 39.7188 21.7239 38.7928C20.4925 37.7496 19.2688 37.1106 18.1606 35.78C17.7873 35.3208 17.2308 34.5542 17.4522 33.8844C17.444 33.4797 17.5927 33.2875 17.9416 33.0923C18.4095 32.4071 20.3175 32.608 21.0011 32.73C22.9218 32.9779 24.5492 33.2546 26.2657 33.8626C27.0472 34.1619 27.9902 34.8758 28.8951 34.8876L29.8771 34.6245C31.4622 34.5556 33.0815 33.8676 34.5986 33.9187C37.2929 34.0613 39.8546 34.6466 42.2086 35.3893C49.3887 37.6871 55.938 41.9343 61.1442 47.7111C61.9977 48.6519 62.4984 49.5865 63.3178 50.5873C64.9231 52.6498 66.7744 54.6969 68.3661 56.7119C69.9456 58.679 71.4909 60.7067 73.3896 62.1819C74.3579 62.9901 77.3028 62.7609 78.7052 62.9447C79.7547 63.121 81.306 63.1126 82.2872 63.409C84.1436 63.9793 86.0384 64.693 87.827 65.3832C88.7278 65.7523 91.3831 66.3125 91.7779 67.2239Z" fill="#00546B"/>
<path d="M33.0396 38.7619C32.245 38.9748 31.7097 39.2205 31.1867 39.513L31.2121 39.6079L31.3057 39.5828C31.8835 40.2419 32.6774 40.5888 33.3227 41.1278C33.9004 41.7866 34.431 42.4586 35.0088 43.1177C35.0425 43.0575 35.0767 42.9978 35.0767 42.9978C35.6043 42.3474 35.7279 41.5007 35.4227 40.3616C35.0532 40.1048 34.9174 39.7851 34.5946 39.5155C34.1871 39.1157 33.5154 39.0416 33.0396 38.7619V38.7619Z" fill="#00546B"/>
</svg>
