<svg width="118" height="117" viewBox="0 0 118 117" fill="none" xmlns="http://www.w3.org/2000/svg">
<path d="M117.557 59.2835C117.557 97.1976 96.1699 116.998 60.0865 116.998C24.0032 116.998 4.43103 99.0202 4.43103 61.106C4.43103 23.1919 39.7319 2.78418 75.8153 2.78418C111.899 2.78418 117.557 21.3693 117.557 59.2835Z" fill="#D9F5D9" fill-opacity="0.7"/>
<path d="M112.706 57.1077C112.706 75.972 107.387 90.2562 97.6515 99.8261C87.9144 109.397 73.6887 114.322 55.7356 114.322C37.7705 114.322 24.0041 109.847 14.7269 100.737C5.45133 91.6291 0.580078 77.8061 0.580078 58.9302C0.580078 40.149 9.3155 25.7114 22.5378 15.9538C35.7726 6.18704 53.5094 1.1084 71.4643 1.1084C89.4255 1.1084 99.6501 5.72985 105.444 14.9071C111.281 24.1545 112.706 38.1368 112.706 57.1077Z" stroke="#505050"/>
<path d="M59.6826 26.6163C61.5139 26.1329 63.5831 26.6829 64.9248 28.0209C71.6974 34.6691 78.4744 41.3108 85.2449 47.9613C86.5193 49.2089 87.0756 51.1482 86.597 52.8735L79.327 80.0053C78.8556 81.8093 77.2942 83.2239 75.4894 83.6259C66.333 85.9793 57.1792 88.3392 48.0241 90.6929C46.1553 91.1852 44.0648 90.5486 42.7635 89.1254C40.7491 87.1039 38.7288 85.0881 36.7138 83.0679C36.3043 82.6468 35.8169 82.2683 35.5993 81.7035C36.0134 81.375 36.5711 81.4697 37.061 81.4091C38.1413 81.3593 39.1917 81.0961 40.2384 80.8481C40.512 80.7518 40.7781 80.8881 40.9619 81.0891C42.6879 82.8048 44.3868 84.5497 46.1226 86.256C46.4916 86.625 47.0232 86.4089 47.452 86.3008C56.4402 83.9806 65.4335 81.6797 74.4207 79.3577C74.7471 79.2961 74.9893 79.032 75.0507 78.7089C77.4543 69.7602 79.8489 60.8073 82.2484 51.8574C82.3778 51.5068 82.2584 51.1207 81.9728 50.8865C75.2419 44.2981 68.5169 37.7041 61.7876 31.1149C61.6756 30.9837 61.5265 30.8895 61.3599 30.8446C61.1933 30.7997 61.0171 30.8063 60.8543 30.8634C51.7316 33.2065 42.6109 35.5591 33.4889 37.8994C33.1256 37.96 32.8212 38.2267 32.7631 38.5978C30.3662 47.5484 27.9662 56.4999 25.5677 65.4514C25.5125 65.6023 25.5049 65.7665 25.5459 65.9218C25.5869 66.0771 25.6745 66.2162 25.7969 66.3202C27.5905 68.0863 29.3892 69.8447 31.1853 71.607C32.2056 72.5683 33.5674 73.3418 35.0128 73.2021C36.2834 73.097 37.4129 72.1318 37.7206 70.895C40.1158 62 42.4839 53.0962 44.8815 44.2033C44.9583 43.8005 45.4205 43.5745 45.7946 43.7146C46.8126 43.9801 47.8321 44.2459 48.8439 44.5346C49.2707 44.6387 49.4486 45.1423 49.2895 45.5262C46.8861 54.4794 44.5018 63.438 42.0847 72.3875C41.448 74.7747 39.7718 77.1086 37.2515 77.6848C34.1547 78.3649 30.8736 77.1655 28.549 75.0949C26.5343 73.3109 24.6819 71.3462 22.7306 69.4905C21.3633 68.2434 20.7257 66.2322 21.2191 64.4356L28.4891 37.3035C28.9454 35.5339 30.445 34.1129 32.2158 33.6945C41.3718 31.3372 50.5274 28.976 59.6826 26.6163Z" fill="#8CC84B"/>
<path d="M61.5852 47.2696C65.1138 47.9758 68.8029 49.0618 71.4665 51.607C73.5323 53.5641 74.1358 56.6715 73.459 59.3679C73.2944 59.7119 72.8623 59.8103 72.5233 59.6928C71.5172 59.4217 70.5065 59.1671 69.5056 58.8769C69.0742 58.7789 68.9316 58.3188 68.9791 57.927C69.0342 56.5648 68.6745 55.1047 67.6314 54.1611C66.0242 52.7344 63.8595 52.2045 61.8302 51.6815C60.3316 51.3641 58.7084 51.0663 57.2238 51.5997C56.0864 52.0004 55.4385 53.2509 55.4947 54.4128C55.6123 55.2678 56.4328 55.7534 57.0972 56.1763C60.9846 58.3898 65.4436 59.468 69.1586 62.0055C70.6991 63.047 72.0543 64.6323 72.1591 66.5655C72.2809 69.1515 71.1847 71.9097 68.9773 73.3681C67.181 74.5736 64.9496 74.8938 62.8283 74.824C60.0134 74.7046 57.2528 73.981 54.6257 72.9953C52.1667 72.0264 49.7057 70.6528 48.2107 68.3999C46.9258 66.4973 46.715 64.0129 47.3821 61.8482C47.5004 61.4842 47.937 61.3252 48.2826 61.4503C49.2983 61.7137 50.3125 61.9825 51.3227 62.2664C51.7353 62.3459 51.9417 62.7762 51.8602 63.1633C51.7192 64.4374 51.835 65.8453 52.7079 66.857C54.4116 68.7378 57.0206 69.3393 59.3693 70.0085C61.3465 70.4454 63.547 71.0069 65.4877 70.1427C66.5263 69.6315 67.1058 68.4659 67.1626 67.3447C67.1561 66.3835 66.3315 65.7155 65.6004 65.2273C61.8235 62.8161 57.2172 62.0896 53.5259 59.5183C52.0239 58.4874 50.7165 56.9489 50.5358 55.0735C50.2928 52.4228 51.4999 49.5481 53.8677 48.2019C56.186 46.8529 59.0114 46.8513 61.5852 47.2693L61.5852 47.2696Z" fill="#8CC84B"/>
</svg>
