<svg width="25" height="25" viewBox="0 0 25 25" fill="none" xmlns="http://www.w3.org/2000/svg">
<path d="M25 12.5C25 18.8513 19.2467 24 14 24C8.75329 24 5 20.8513 5 14.5C5 8.14873 10.2533 1 15.5 1C20.7467 1 25 6.14873 25 12.5Z" fill="#D1E3F3"/>
<path d="M1.50893 12.4999C1.50893 19.2141 5.28571 22.9909 12 22.9909C13.6618 22.9909 15.8557 22.5612 16.4348 20.9028C17.2724 18.5008 12.8846 19.1168 12.8846 16.092C12.8846 10.7323 22.4911 16.8138 22.4911 9.63622C22.4911 6.4805 18.7143 2.00879 12 2.00879C5.28571 2.00879 1.50893 5.78557 1.50893 12.4999Z" stroke="#505050" stroke-linecap="round" stroke-linejoin="round"/>
<path d="M14.5178 9.1423C15.5921 9.1423 16.1964 8.53801 16.1964 7.46373C16.1964 6.38944 15.5921 5.78516 14.5178 5.78516C13.4435 5.78516 12.8392 6.38944 12.8392 7.46373C12.8392 8.53801 13.4435 9.1423 14.5178 9.1423Z" stroke="#505050" stroke-linecap="round" stroke-linejoin="round"/>
<path d="M7.80346 11.6609C8.87775 11.6609 9.48204 11.0566 9.48204 9.98228C9.48204 8.908 8.87775 8.30371 7.80346 8.30371C6.72918 8.30371 6.12489 8.908 6.12489 9.98228C6.12489 11.0566 6.72918 11.6609 7.80346 11.6609Z" stroke="#505050" stroke-linecap="round" stroke-linejoin="round"/>
<path d="M7.80357 17.1157C7.535 17.1157 7.38393 16.9646 7.38393 16.696C7.38393 16.4274 7.535 16.2764 7.80357 16.2764" stroke="#505050" stroke-linecap="round" stroke-linejoin="round"/>
<path d="M7.80357 17.1157C8.07215 17.1157 8.22322 16.9646 8.22322 16.696C8.22322 16.4274 8.07215 16.2764 7.80357 16.2764" stroke="#505050" stroke-linecap="round" stroke-linejoin="round"/>
</svg>
