<svg width="120" height="121" viewBox="0 0 120 121" fill="none" xmlns="http://www.w3.org/2000/svg">
<path d="M116.308 67.9299C108.889 104.75 97.8346 121.857 61.9035 113.487C29.7556 105.998 5.02637 84.4104 5.02637 45.4635C5.02637 6.51647 43.6729 -4.89774 79.8322 2.40272C116.926 9.89186 123.998 29.7643 116.308 67.9299Z" fill="#D1E3F3"/>
<path d="M111.065 72.584C107.355 90.9963 102.758 104.332 94.6995 112.046C86.692 119.712 75.1524 121.92 57.2645 117.753C41.2631 114.025 27.1432 106.797 17.0267 95.6883C6.9167 84.5866 0.773926 69.5761 0.773926 50.2164C0.773926 30.9472 10.3142 18.5255 24.3335 11.794C38.388 5.04561 56.9712 4.00967 74.9808 7.64576C93.4594 11.3766 104.322 18.1635 109.666 28.6427C115.028 39.1572 114.906 53.5198 111.065 72.584Z" stroke="#505050"/>
<path d="M90.2794 70.3139C89.9847 69.1514 89.0599 68.2914 87.8057 68.0129C87.2143 67.8816 86.5272 67.8719 85.7055 67.9827C84.2733 68.1761 83.2181 68.214 82.4522 68.1821C85.679 63.4991 88.4146 58.0928 90.1319 52.9436C92.9088 44.6176 92.0118 40.6734 90.7702 38.8309C87.4844 33.954 82.3925 31.1015 76.0452 30.5813C72.6593 30.3028 69.6374 30.7657 68.0518 31.1396C66.6247 30.7829 65.081 30.5316 63.4527 30.3912C60.4002 30.1286 57.6535 30.6078 55.2505 31.8194C54.0035 31.297 51.9963 30.5431 49.6562 29.9879C44.1526 28.682 39.6153 29.0824 36.1704 31.1781C31.999 33.7154 29.8145 38.4779 29.6775 45.3333C29.6341 47.5099 30.3826 54.1939 31.85 60.5858C32.6934 64.2598 33.6521 67.3287 34.6993 69.7083C36.1846 73.0826 37.8833 75.1272 39.8926 75.9594C41.0189 76.4253 43.0953 76.8416 45.4277 75.1552C45.6833 75.514 46.0324 75.8771 46.5051 76.2248C47.1055 76.6659 47.8508 77.0442 48.6044 77.2902C51.3203 78.1765 53.9218 78.1842 56.1988 77.3674C56.1849 77.7623 56.169 78.1395 56.1551 78.4652C56.1328 78.9934 56.1113 79.5114 56.0968 79.9962C55.9991 83.2742 56.0432 85.8315 56.5759 87.6559C56.6052 87.7562 56.6433 87.9087 56.6834 88.0704C56.9408 89.0998 57.3712 90.8232 58.6737 92.2404C60.0223 93.7084 61.7399 94.2497 63.3399 94.3616C64.1423 94.4177 64.9153 94.3657 65.5969 94.2684C68.0265 93.9213 70.7998 93.3278 72.9627 90.6574C75.0076 88.133 76.191 84.1982 76.795 77.9101C76.8287 77.7334 76.8601 77.5647 76.8902 77.4039L76.9525 77.0737L77.3878 77.143L77.5001 77.1585C79.9303 77.4404 82.9476 77.1304 84.838 76.4057C86.3317 75.8337 91.1392 73.7036 90.2794 70.3139Z" fill="black"/>
<path d="M86.0658 70.6662C78.7119 71.6588 78.3855 69.1628 78.3855 69.1628C86.8356 58.3097 91.0461 44.0775 88.5326 40.3465C81.6746 30.1687 68.3162 33.8213 68.0902 33.9243L68.0194 33.9322C66.608 33.5338 65.0177 33.2443 63.2183 33.0887C59.9421 32.8056 57.3899 33.5477 55.4014 34.8514C55.4014 34.8514 32.8125 23.6156 32.3775 45.3857C32.2848 50.017 36.5323 80.7684 44.7662 72.1455C47.7758 68.9923 50.6557 66.3496 50.6557 66.3496C51.9255 67.33 53.4884 67.8942 55.1714 67.8485L55.309 67.7471C55.2395 68.1598 55.2296 68.5676 55.2698 69.054C53.1602 71.109 53.7083 71.5339 49.7412 72.0678C45.7267 72.6089 47.9496 74.2272 49.4408 74.7142C51.2486 75.3041 55.4597 76.2553 58.6183 72.4188L58.4715 72.8715C59.1948 73.5408 59.496 76.9671 59.191 80.033C58.886 83.0986 58.6783 85.2035 59.1669 86.8931C59.6559 88.5828 59.9985 92.3315 65.2169 91.5865C69.577 90.9637 71.9705 88.7272 72.5593 84.7584C72.9773 81.937 73.4455 82.3912 73.654 79.857L74.137 78.6843C74.8658 74.871 74.5658 73.6032 77.1718 74.3654L77.8113 74.4671C79.7527 74.692 82.3305 74.4672 83.8756 73.8745C87.2023 72.6005 89.2883 70.2305 86.0653 70.6661L86.0658 70.6662Z" fill="#336791"/>
<path d="M55.7738 49.0967C55.1269 48.9598 54.5294 49.0028 54.2142 49.2091C54.0371 49.3252 53.9745 49.4697 53.9533 49.5706C53.8969 49.8381 54.0646 50.15 54.1699 50.3121C54.4675 50.771 54.9257 51.1042 55.3955 51.2034C55.4635 51.218 55.5317 51.2271 55.5997 51.2319C56.3907 51.2872 57.1532 50.7199 57.2484 50.2684C57.3676 49.703 56.5676 49.2647 55.7737 49.0969L55.7738 49.0967ZM77.4134 50.628C77.3823 50.1761 76.5971 49.993 75.8361 50.0454C75.076 50.0979 74.3224 50.3876 74.352 50.8403C74.3764 51.1925 74.9629 51.8319 75.7063 51.8839C75.7692 51.8882 75.8329 51.8885 75.8974 51.8839C76.3985 51.8497 76.7847 51.5592 76.9705 51.3892C77.2532 51.1299 77.4274 50.8311 77.4134 50.628Z" fill="white"/>
<path d="M88.4899 70.6645C88.2721 69.8071 87.4012 69.4753 85.9017 69.6779C81.4495 70.2793 79.9218 69.5403 79.4325 69.1231C83.2081 64.1506 86.4549 58.0476 88.3798 52.2763C89.2916 49.5425 89.8685 46.9847 90.0482 44.8795C90.2458 42.5691 89.9717 40.8419 89.2341 39.7469C86.2601 35.3327 81.6226 32.7522 75.8232 32.2848C71.8365 31.9608 68.3938 32.749 67.7202 32.9912C66.368 32.5518 64.8825 32.2362 63.251 32.0951C60.2592 31.837 57.6198 32.375 55.3738 33.691C54.467 33.2783 52.1186 32.2817 49.2091 31.6005C44.179 30.4235 40.0927 30.7631 37.0644 32.6108C33.4509 34.8158 31.5559 39.0764 31.4319 45.274C31.3902 47.3591 32.1239 53.8338 33.5591 60.0856C35.4483 68.3143 37.7955 73.0619 40.5349 74.1964C40.8556 74.3291 41.2287 74.4323 41.6463 74.4615C42.6695 74.533 43.9564 74.1583 45.3717 72.676C47.0977 70.8722 48.8753 69.1187 50.7022 67.4177C51.7634 68.0883 52.9517 68.5044 54.1883 68.6243C54.1885 68.657 54.1894 68.6897 54.19 68.7222C53.9589 68.9623 53.732 69.2064 53.5093 69.4544C52.5744 70.4872 52.3798 70.7023 49.5766 71.0795C48.7791 71.1873 46.6612 71.4727 46.5279 72.9381C46.3826 74.5392 48.8366 75.3875 49.1166 75.4788C50.0922 75.7975 51.0403 75.9874 51.9527 76.0512C54.1715 76.2063 56.1753 75.6116 57.8347 74.3057C57.387 80.0184 57.2308 85.6675 57.7952 87.4315C58.2576 88.8756 59.3869 92.4048 63.7125 92.707C64.3472 92.7514 65.051 92.7262 65.8311 92.6147C70.4134 91.96 72.5138 90.0963 73.5805 85.7382C74.1512 83.4091 75.2412 77.8285 75.78 74.8318C76.4561 75.0965 77.3391 75.2577 78.3012 75.3247C80.3078 75.465 82.653 75.1994 84.1523 74.6252C85.8366 73.9795 88.9104 72.3214 88.4899 70.6645ZM79.1659 49.5084C79.0887 50.3988 78.9098 51.1995 78.721 52.0351C78.5178 52.9339 78.3078 53.8631 78.1918 55.0008C78.0784 56.108 78.1359 57.2713 78.1914 58.3964C78.3039 60.6689 78.4188 63.0083 77.186 65.2226C77.03 64.8935 76.8941 64.5552 76.7792 64.2095C76.6686 63.876 76.4154 63.3352 76.0648 62.5866C74.7012 59.6725 71.508 52.8485 73.5652 50.2989C74.1779 49.5401 75.6488 48.8186 79.1659 49.5084ZM75.9213 34.1055C81.1133 34.5843 85.0904 36.8226 87.7418 40.7581C89.7753 43.7768 86.4049 56.6293 78.4986 67.3677C78.4333 67.2714 78.3677 67.1754 78.3017 67.0796L78.2194 66.9604C80.2725 64.0418 80.1236 61.0017 79.9902 58.3063C79.9353 57.2002 79.8834 56.1554 79.9832 55.1843C80.088 54.1551 80.2859 53.2798 80.4773 52.4335C80.7126 51.3906 80.9534 50.3113 80.998 49.0222C81.0413 48.8897 81.0661 48.7312 81.0616 48.5408C81.032 47.2996 79.8861 43.5109 77.2581 39.9705C75.8205 38.034 73.6807 35.8298 70.6604 34.2328C72.0205 34.0479 73.8719 33.9163 75.9213 34.1055ZM44.071 71.4277C42.5116 73.0611 41.5418 72.6592 41.2228 72.5273C39.1447 71.6668 36.9909 66.984 35.314 59.68C33.8631 53.36 33.1975 47.0603 33.2322 45.3092C33.3432 39.7715 34.9461 36.0187 37.9969 34.1551C42.9617 31.1226 50.597 33.6794 53.6503 34.9189C53.6023 34.9602 53.5526 34.9985 53.5051 35.0406C48.0145 39.8746 47.5158 48.7547 47.4905 49.2979C47.4754 49.5071 47.4722 49.8046 47.4676 50.2137C47.4515 51.7121 47.4216 54.5007 46.7629 57.615C46.151 60.509 46.8495 63.4323 48.6787 65.6355C48.8664 65.8612 49.0652 66.0774 49.2744 66.2833C48.3299 67.1654 46.2748 69.1182 44.071 71.4277ZM50.0628 64.4799C48.5885 62.7041 48.0279 60.3384 48.5246 57.9887C49.22 54.6989 49.2515 51.7935 49.2683 50.2325C49.2706 50.0141 49.2725 49.8226 49.2764 49.6718C50.072 49.0582 53.6737 47.436 56.1094 48.1778C57.2208 48.5162 57.8552 49.3357 58.0486 50.6824C59.0493 57.655 57.564 60.4281 56.3706 62.6566C56.1247 63.1157 55.8923 63.5496 55.6883 64.001L55.5301 64.3501C55.1299 65.2323 54.7576 66.0527 54.5074 66.8389C52.8166 66.7157 51.2222 65.8762 50.0628 64.4796L50.0628 64.4799ZM49.6746 73.7616C49.1894 73.6034 48.7604 73.3575 48.5122 73.1611C48.7371 73.0737 49.1342 72.961 49.8157 72.8691C53.1135 72.4255 53.6487 71.9869 54.8427 70.6677C55.1164 70.3651 55.4267 70.0223 55.8522 69.6079L55.8527 69.6075C56.4866 68.9886 56.7476 69.1194 57.2209 69.3563C57.6046 69.5477 57.9547 70.0713 58.0725 70.6287C58.1283 70.892 58.1769 71.3876 57.879 71.75C55.3639 74.8054 52.0293 74.5308 49.6746 73.7616ZM65.5779 90.8271C61.5411 91.4035 60.2753 89.2702 59.51 86.8791C59.0161 85.3355 59.1952 78.5429 59.9271 71.079C59.9367 70.9797 59.9293 70.8826 59.9083 70.7903C59.8964 70.61 59.8716 70.4308 59.8341 70.2541C59.5997 69.1442 58.9065 68.181 58.0249 67.7401C57.6746 67.5651 57.0318 67.2438 56.222 67.3923C56.4406 66.7031 56.7902 65.932 57.1692 65.0971L57.3282 64.746C57.5073 64.35 57.7259 63.9421 57.9569 63.5103C59.2058 61.1788 60.9161 57.9852 59.8309 50.4246C59.4244 47.5927 57.5107 46.0898 54.4432 46.1934C52.6043 46.2552 50.8822 46.877 50.0195 47.2423C49.834 47.3207 49.664 47.3973 49.5049 47.4721C49.934 44.6775 51.1798 39.4858 54.6985 36.392C56.914 34.4444 59.7418 33.6037 63.0953 33.8942C69.703 34.4653 73.7072 38.1662 75.9029 41.1707C77.795 43.7594 78.7399 46.3001 79.0929 47.6594C75.764 47.083 73.4374 47.5872 72.1656 49.1635C69.3988 52.5924 72.8 59.8608 74.4347 63.3541C74.7346 63.9943 74.9932 64.5476 75.0705 64.7804C75.5759 66.3027 76.2951 67.3458 76.8202 68.1071C76.9812 68.3404 77.1374 68.5667 77.2544 68.763C76.2184 68.9856 74.347 69.5363 74.2762 72.9383C74.0232 74.6301 72.5129 82.5282 71.8318 85.3084C70.9325 88.9813 69.4714 90.2706 65.5779 90.8273L65.5779 90.8271ZM83.5102 72.9385C82.438 73.3492 80.675 73.5901 79.0189 73.5527C77.1897 73.5107 76.2818 73.1554 76.0759 72.9615C76.1212 70.8416 76.9208 70.6757 77.7671 70.5C77.9001 70.4725 78.0298 70.4455 78.1557 70.411C78.2276 70.4787 78.3069 70.5464 78.3943 70.6134C79.7919 71.6858 82.3983 71.9731 86.1418 71.4674L86.1828 71.4621C85.6525 71.8939 84.757 72.4606 83.5102 72.9385Z" fill="white"/>
</svg>
