<svg width="203" height="179" viewBox="0 0 203 179" fill="none" xmlns="http://www.w3.org/2000/svg">
<path d="M202.072 76.2713C206.443 114.894 138.907 178.436 87.1781 178.436C35.449 178.436 7.8761 146.836 7.8761 105.55C7.8761 64.2644 53.7011 -2.19784 104.662 2.76258C155.865 7.74654 197.178 33.0284 202.072 76.2713Z" fill="#E0ECF7"/>
<path d="M193.973 74.1556C195.049 83.6619 191.702 94.7645 185.202 106.108C178.708 117.442 169.096 128.966 157.724 139.295C134.964 159.969 105.263 175.764 79.5758 175.764C53.8146 175.764 34.124 167.897 20.8759 154.946C7.62732 141.993 0.773803 123.908 0.773803 103.378C0.773803 82.8878 12.1627 56.0609 29.9388 34.9643C47.7166 13.8657 71.7668 -1.36889 97.0112 1.08835C148.127 6.06388 189.12 31.2687 193.973 74.1556Z" stroke="#505050"/>
<path d="M156.854 76.9057C155.341 68.9699 143.981 63.341 127.872 61.5778C128.425 45.3786 124.509 33.3206 116.877 30.6757C115.115 30.05 113.177 29.9638 111.153 30.3496L112.191 35.7948C113.313 35.581 114.257 35.6287 115.092 35.8997C118.772 37.1722 121.594 44.15 122.249 53.6915C122.418 56.0379 122.44 58.539 122.374 61.1075C117.37 60.8465 111.978 60.9378 106.378 61.3976C102.224 57.5078 98.028 54.0564 93.9048 51.1224C100.446 42.2084 107.137 36.7326 112.211 35.7657L111.173 30.3205C104.465 31.5988 96.5967 38.0581 89.3007 48.0523C78.8495 41.491 69.1661 38.4273 62.4586 39.7056L63.4963 45.1508C68.5452 44.1886 76.801 46.7905 86.1532 52.625C83.4225 56.8652 80.785 61.5938 78.4019 66.7293C73.0013 68.3659 67.9538 70.2641 63.4012 72.3717C62.3749 70.0368 61.5089 67.7473 60.7834 65.5322C57.8594 56.423 57.8919 48.9013 60.817 46.3447C61.465 45.7657 62.379 45.3891 63.501 45.1753L62.4632 39.7301C60.4144 40.1205 58.6445 40.9133 57.2115 42.148C51.1116 47.4099 51.925 60.0338 58.412 74.8408C44.1344 82.4204 35.6848 91.7993 37.1926 99.7107C38.705 107.647 50.0653 113.275 66.174 115.039C65.6214 131.238 69.5371 143.296 77.1692 145.941C78.9314 146.566 80.8689 146.653 82.9177 146.262C89.6252 144.984 97.4938 138.525 104.79 128.53C115.241 135.092 124.924 138.155 131.632 136.877C133.681 136.487 135.451 135.694 136.884 134.459C142.984 129.197 142.17 116.573 135.683 101.766C149.917 94.2205 158.362 84.8171 156.854 76.9057ZM121.993 66.6711C121.691 69.993 121.188 73.4545 120.538 76.9438C119.166 75.1809 117.745 73.4274 116.226 71.6924C114.732 69.9528 113.174 68.2759 111.625 66.6479C115.186 66.5007 118.649 66.4987 121.993 66.6711ZM115.778 94.8052C114.504 98.4642 113.148 101.962 111.678 105.253C108.104 106.263 104.453 107.136 100.746 107.843C97.063 108.544 93.3475 109.075 89.6818 109.47C87.1036 106.95 84.5369 104.226 82.0108 101.316C79.5475 98.471 77.2456 95.5442 75.0854 92.565C75.9741 89.0048 77.0579 85.4074 78.2776 81.86C79.5518 78.201 80.9074 74.7036 82.3781 71.4121C85.9518 70.4021 89.6023 69.5292 93.3097 68.8227C96.9927 68.1208 100.708 67.5898 104.374 67.1948C106.952 69.7148 109.519 72.4393 112.045 75.3488C114.508 78.1942 116.81 81.1211 118.97 84.1002C118.057 87.6651 116.998 91.2578 115.778 94.8052ZM123.051 90.1295C124.992 93.1505 126.738 96.2086 128.269 99.2063C125.223 100.597 121.983 101.897 118.593 103.075C119.43 100.967 120.257 98.8102 121.002 96.6185C121.752 94.4512 122.424 92.2735 123.051 90.1295ZM103.284 120.897C100.569 118.985 97.8031 116.805 95.0147 114.375C97.2285 114.055 99.4864 113.7 101.755 113.268C104.047 112.831 106.307 112.35 108.503 111.805C106.852 115.08 105.082 118.125 103.284 120.897ZM82.3968 109.973C78.8356 110.12 75.373 110.122 72.0289 109.95C72.3311 106.628 72.8341 103.167 73.4835 99.6773C74.8558 101.44 76.2769 103.194 77.7956 104.929C79.3142 106.664 80.848 108.345 82.3968 109.973ZM90.7375 55.7242C93.4526 57.636 96.2189 59.8164 99.0073 62.2457C96.7935 62.5663 94.5356 62.9207 92.2673 63.353C89.9745 63.79 87.7155 64.2711 85.5192 64.8162C87.1699 61.541 88.9403 58.4959 90.7375 55.7242ZM75.4293 73.5461C74.5925 75.6541 73.7649 77.8109 73.0199 80.0026C72.2702 82.1698 71.5937 84.3232 70.9659 86.4672C69.0253 83.4462 67.2797 80.388 65.7479 77.3903C68.7988 76.0244 72.0391 74.7236 75.4293 73.5461ZM59.1819 108.324C49.8448 106.283 43.3379 102.512 42.6073 98.6787C41.8767 94.8451 46.5362 88.9215 54.4725 83.6132C56.3979 82.31 58.5371 81.0673 60.7587 79.8594C63.0611 84.3804 65.8397 89.013 69.0806 93.6841C67.8046 99.1907 66.9444 104.492 66.486 109.513C63.927 109.217 61.476 108.823 59.1819 108.324ZM78.954 140.717C75.2739 139.444 72.4528 132.466 71.7971 122.925C71.6279 120.578 71.6063 118.077 71.6729 115.509C76.6768 115.77 82.0686 115.679 87.6683 115.219C91.8219 119.109 96.0184 122.56 100.142 125.494C93.6002 134.408 86.9091 139.884 81.8359 140.851C80.7336 141.035 79.7649 140.992 78.954 140.717ZM133.263 111.084C136.187 120.193 136.154 127.715 133.229 130.272C132.581 130.851 131.667 131.227 130.545 131.441C125.497 132.403 117.241 129.801 107.889 123.967C110.619 119.727 113.257 114.998 115.64 109.863C121.04 108.226 126.088 106.328 130.641 104.22C131.672 106.58 132.562 108.864 133.263 111.084ZM139.55 93.0078C137.624 94.311 135.485 95.5538 133.263 96.7616C130.961 92.2407 128.182 87.608 124.941 82.937C126.217 77.4304 127.078 72.1296 127.536 67.1077C130.095 67.4045 132.546 67.7978 134.865 68.2922C144.202 70.3338 150.708 74.104 151.439 77.9377C152.145 81.7759 147.486 87.6996 139.55 93.0078Z" fill="#61DAFB"/>
<path d="M99.1254 99.4711C105.282 98.2978 109.32 92.3507 108.145 86.1877C106.971 80.0248 101.028 75.9798 94.8721 77.153C88.716 78.3263 84.6776 84.2734 85.8521 90.4364C87.0267 96.5993 92.9693 100.644 99.1254 99.4711Z" fill="#61DAFB"/>
</svg>
