<svg width="27" height="25" viewBox="0 0 27 25" fill="none" xmlns="http://www.w3.org/2000/svg">
<path d="M27 11C27 17.3513 20.5228 24 15 24C9.47715 24 5 18.8513 5 12.5C5 6.14873 11.9772 0.5 17.5 0.5C23.0228 0.5 27 4.64873 27 11Z" fill="#D1F3E3"/>
<path d="M15.2149 12.1606C15.2754 12.9215 15.858 13.5455 16.6157 13.6124C18.3047 13.7636 19.879 13.7636 21.5679 13.6124C21.9353 13.5748 22.2775 13.4085 22.5339 13.1427C22.7903 12.877 22.9443 12.5291 22.9687 12.1606C23.0722 10.8601 23.1852 9.50704 23.1852 8.12055C23.1852 6.73247 23.0722 5.37941 22.9687 4.07729C22.944 3.70912 22.7897 3.36158 22.5334 3.09617C22.277 2.83077 21.935 2.66462 21.5679 2.62713C19.9211 2.47716 18.2641 2.47716 16.6173 2.62713C16.25 2.66467 15.9078 2.83105 15.6514 3.09678C15.395 3.36251 15.2409 3.71043 15.2165 4.07888C15.113 5.37941 15 6.73247 15 8.12055C15 9.50704 15.113 10.8601 15.2149 12.1606Z" stroke="#505050" stroke-linecap="round" stroke-linejoin="round"/>
<path d="M19.0927 9.7666V10.2648" stroke="#505050" stroke-linecap="round" stroke-linejoin="round"/>
<path d="M14.3432 17.9434L15.3604 22.2541H8.63965L9.65842 17.9434" stroke="#505050" stroke-linecap="round" stroke-linejoin="round"/>
<path d="M6.04333 22.2549H17.9566" stroke="#505050" stroke-linecap="round" stroke-linejoin="round"/>
<path d="M12.5 2.75879C10.3049 2.79699 5.86825 2.9132 3.83388 3.17107C3.52911 3.20827 3.2431 3.33813 3.0145 3.5431C2.7859 3.74807 2.62573 4.01827 2.55564 4.3172C2.17519 5.97589 2.05103 7.45789 2.05103 10.3439C2.05103 13.1089 2.36939 14.61 2.63045 16.178C2.74825 16.8832 3.29903 17.4483 4.00739 17.5326C6.54319 17.8351 9.24454 17.9433 12 17.9433C14.8653 17.9433 17.6144 17.8271 20.2744 17.4976C20.5382 17.4616 20.7831 17.3407 20.972 17.1532C21.161 16.9656 21.2838 16.7216 21.3218 16.4581" stroke="#505050" stroke-linecap="round" stroke-linejoin="round"/>
<path d="M15.6183 17.6333C14.0965 14.8747 11.9778 12.1558 9.51678 10.2567C8.53939 9.50221 7.17996 9.5627 6.20576 10.322C4.66645 11.5222 3.68429 12.5792 2.43311 14.3271" stroke="#505050" stroke-linecap="round" stroke-linejoin="round"/>
<path d="M15 11C13.5737 11 13 10.0527 13 8.62799C13 7.2017 13.5737 6.5 15 6.5" stroke="#505050" stroke-linecap="round" stroke-linejoin="round"/>
</svg>
