<svg width="42" height="41" viewBox="0 0 42 41" fill="none" xmlns="http://www.w3.org/2000/svg">
<path d="M42 21C42 32.0457 33.7696 40.5 23 40.5C12.2304 40.5 3.00598 31.5457 3.00598 20.5C3.00598 9.4543 11.7364 0.5 22.506 0.5C33.2755 0.5 42 9.9543 42 21Z" fill="#D1F3E3" fill-opacity="0.7"/>
<path d="M39.5 20C39.5 30.7696 30.7696 39.5 20 39.5C9.23045 39.5 0.5 30.7696 0.5 20C0.5 9.23045 9.23045 0.5 20 0.5C30.7696 0.5 39.5 9.23045 39.5 20Z" stroke="#5C5C5C"/>
<path d="M19.825 10L19.825 30" stroke="#5C5C5C" stroke-linecap="round"/>
<path d="M19.8667 30L23.2 25" stroke="#5C5C5C" stroke-linecap="round"/>
<path d="M19.7833 30L16.4499 25" stroke="#5C5C5C" stroke-linecap="round"/>
</svg>
