<svg width="119" height="109" viewBox="0 0 119 109" fill="none" xmlns="http://www.w3.org/2000/svg">
<path d="M116.02 62.7849C106.244 90.894 80.5799 108.612 62.8596 108.612C45.2239 108.612 7.25476 90.5299 7.25476 52.3958C7.25476 14.2618 58.5817 17.5637 86.6903 3.51081C106.585 -6.4356 125.797 34.6757 116.02 62.7849Z" fill="#D9F5D9" fill-opacity="0.7"/>
<path d="M108.567 60.9556C103.712 74.9139 94.9112 86.2951 85.1242 94.185C75.3275 102.083 64.589 106.447 55.8788 106.447C47.1922 106.447 33.3977 101.977 21.7739 92.7475C10.1675 83.532 0.773926 69.6116 0.773926 50.7308C0.773926 41.3255 3.93224 34.5098 9.08724 29.3337C14.2595 24.1403 21.4699 20.5695 29.6156 17.73C36.1588 15.4491 43.2645 13.6528 50.3585 11.8594C52.0973 11.4198 53.8354 10.9804 55.5643 10.5341C64.3285 8.27181 72.8535 5.83243 79.9331 2.293C84.7233 -0.101878 89.4654 0.563427 93.7875 3.37737C98.131 6.20532 102.041 11.204 105.051 17.4296C111.074 29.8844 113.403 47.051 108.567 60.9556Z" stroke="#505050"/>
<path d="M90.2026 33.9762C88.7932 35.8223 87.1967 37.366 85.5338 38.6868C81.6188 31.755 75.0192 26.2488 66.7052 24.0211C50.3716 19.6445 33.4687 29.3413 29.0763 45.7337C26.7816 54.2978 28.3796 62.9903 32.7331 69.9922L33.5726 71.2738C37.5449 76.9908 43.5198 81.4149 50.7889 83.3626C66.3868 87.5421 82.4937 78.8149 87.7137 63.7482C90.5956 56.5243 90.8884 46.3671 90.2026 33.9762ZM36.9628 71.3937C35.8137 72.2686 34.1929 71.9605 33.318 70.8113C32.443 69.6622 32.7511 68.0414 33.9003 67.1665C35.0495 66.2915 36.6703 66.5996 37.5452 67.7488C38.3613 68.8822 38.112 70.5188 36.9628 71.3937ZM79.4828 73.2767C69.5927 81.0516 54.8192 73.5602 44.7123 71.3725C44.7123 71.3725 42.9002 71.0132 41.0674 70.7902C41.0674 70.7902 41.8271 70.6626 42.7634 70.5822C50.4516 70.0242 53.8966 70.4111 58.7661 69.3659C67.8858 67.4093 78.2999 60.5634 82.3957 51.6933C76.9416 59.8051 65.5757 65.0239 56.2934 65.8803C49.9054 66.4712 38.8871 65.7427 38.8871 65.7427L38.5274 65.3782C32.3692 59.9903 36.2512 44.5019 50.5585 43.0206C56.8447 42.3392 61.9031 45.0037 68.4737 45.2029C75.4319 45.4271 84.3378 42.5615 89.1029 36.962C89.7302 48.2174 89.6008 65.3578 79.4828 73.2767Z" fill="#6CB52D"/>
<path d="M36.9628 71.3937C35.8137 72.2686 34.1929 71.9605 33.318 70.8113C32.443 69.6621 32.7511 68.0414 33.9003 67.1665C35.0495 66.2915 36.6703 66.5996 37.5452 67.7488C38.3613 68.8822 38.112 70.5187 36.9628 71.3937Z" fill="#E2E9D6"/>
</svg>
