<svg width="319" height="194" viewBox="0 0 319 194" fill="none" xmlns="http://www.w3.org/2000/svg">
<path d="M317.857 110.97C308.122 161.907 267.961 190.353 211.89 190.353C155.819 190.353 117.979 147.976 123.055 97.0766C128.194 45.5495 150.108 12.4873 206.179 12.4873C262.251 12.4873 328.01 57.849 317.857 110.97Z" fill="#F5F5DA"/>
<path d="M308.739 114.08C303.893 139.435 291.483 159.166 273.326 172.565C255.163 185.967 231.215 193.057 203.263 193.057C147.472 193.057 109.88 150.92 114.926 100.33C117.491 74.614 124.235 53.5894 137.264 38.9964C150.276 24.4216 169.621 16.1914 197.553 16.1914C225.466 16.1914 255.814 27.4879 277.91 45.4008C300.009 63.3161 313.768 87.7681 308.739 114.08Z" stroke="#505050"/>
<path d="M262.501 62.2131L179.329 47.5476C173.758 46.5653 170.973 46.0742 168.937 47.4997C166.901 48.9252 166.41 51.7106 165.427 57.2815L150.762 140.453C149.78 146.024 149.289 148.81 150.714 150.845C152.14 152.881 154.925 153.372 160.496 154.355L243.668 169.02C249.239 170.002 252.024 170.494 254.06 169.068C256.096 167.643 256.587 164.857 257.569 159.286L272.235 76.1145C273.217 70.5436 273.708 67.7582 272.282 65.7223C270.857 63.6865 268.072 63.1954 262.501 62.2131Z" fill="#F7DF1E"/>
<path d="M224.545 141.557C226.077 145.449 228.421 148.525 233.371 149.398C237.53 150.131 240.553 148.521 241.06 145.649C241.666 142.207 239.152 140.507 234.927 137.698L232.608 136.179C225.91 131.816 221.78 127.102 223.221 118.931C224.548 111.403 231.294 106.684 240.257 108.265C246.638 109.39 250.834 112.42 253.115 118.818L244.415 122.458C243.238 119.069 241.596 117.526 238.714 117.018C235.774 116.5 233.582 118.036 233.152 120.472C232.621 123.483 234.271 125.031 238.249 127.655L240.568 129.172C248.451 134.333 252.609 138.91 251.131 147.292C249.537 156.328 241.566 160.027 232.033 158.346C222.712 156.702 217.473 151.199 215.553 144.857L224.545 141.557ZM188.937 136.175C190.02 139.25 191.038 141.868 194.486 142.476C197.783 143.058 200.091 142.134 200.976 137.118L206.993 102.99L217.03 104.76L210.988 139.023C209.156 149.416 202.229 153.071 193.335 151.503C185.299 150.086 181.378 145.107 179.895 139.681L188.937 136.175Z" fill="black"/>
<path d="M208.169 126.223C201.591 171.699 122.49 179.341 75.5211 172.547C28.5519 165.754 -1.05986 85.3302 10.0218 50.8785C23.7837 8.09442 78.9589 -3.7243 125.928 3.06917C172.897 9.86264 214.747 80.7463 208.169 126.223Z" fill="url(#paint0_linear_1494_1809)"/>
<path d="M200.787 125.266C197.545 147.681 176.413 160.881 149.982 167.617C123.589 174.344 92.1391 174.557 68.7058 171.168C45.4776 167.808 26.4355 146.204 14.5679 120.987C8.64281 108.397 4.52708 94.9478 2.58312 82.5063C0.637793 70.056 0.873706 58.6567 3.61097 50.1468C10.4296 28.9486 27.5123 15.3892 48.7999 7.96963C70.0926 0.548387 95.5448 -0.708851 118.97 2.67925C142.246 6.04584 164.344 25.3235 179.821 49.5245C195.294 73.7196 204.053 102.688 200.787 125.266Z" stroke="#505050"/>
<path d="M40.2914 54.7445C39.5041 49.1427 39.1105 46.3418 40.6062 44.357C42.1019 42.3722 44.9028 41.9785 50.5046 41.1913L134.137 29.4374C139.739 28.6501 142.54 28.2565 144.525 29.7522C146.51 31.2479 146.903 34.0488 147.691 39.6506L159.445 123.283C160.232 128.885 160.625 131.686 159.13 133.671C157.634 135.656 154.833 136.049 149.231 136.837L65.5985 148.591C59.9967 149.378 57.1958 149.771 55.211 148.276C53.2262 146.78 52.8325 143.979 52.0452 138.377L40.2914 54.7445Z" fill="#0082DA"/>
<path d="M95.7794 75.3844L100.931 74.6603L102.181 83.5543L88.2528 85.5118L93.814 125.082L93.459 125.234C92.9744 125.439 86.3459 126.371 84.8982 126.42L83.743 126.48L78.1841 86.9269L64.2558 88.8844L63.0058 79.9904L67.4122 79.3198C69.8239 78.9466 76.033 78.074 81.2063 77.3812C86.3796 76.6883 92.9266 75.7853 95.7794 75.3844V75.3844ZM141.319 114.127C139.576 116.58 137.548 118.097 134.028 119.601C132.496 120.261 132.229 120.316 128.636 120.804C125.042 121.292 124.757 121.332 122.948 121.124C118.271 120.601 114.311 118.847 111.377 115.991C110.545 115.184 109.123 113.467 109.09 113.232C109.081 113.165 109.227 112.99 109.431 112.859C109.635 112.728 110.048 112.379 110.387 112.109C110.725 111.839 111.34 111.341 111.76 111.043C112.18 110.744 113.381 109.788 114.425 108.94C115.469 108.092 116.432 107.392 116.55 107.375C116.667 107.359 116.918 107.563 117.126 107.824C118.371 109.378 121.025 111.212 122.79 111.717C123.875 112.01 126.209 112.178 127.299 112.025C128.306 111.883 130.091 111.187 131.017 110.595C132.006 109.96 132.475 109.398 132.976 108.335C133.315 107.586 133.34 107.394 133.139 106.087C132.969 104.879 132.855 104.553 132.441 104.046C131.285 102.635 129.896 102.008 124.407 100.452C118.738 98.8363 116.14 97.764 113.927 96.1413C112.286 94.9345 111.946 94.5886 110.792 92.9539C109.299 90.8536 109.044 90.1364 108.554 86.7658C108.204 84.402 108.146 83.623 108.285 82.7821C108.467 81.5244 109.28 79.0314 109.718 78.3709C110.615 76.9614 110.947 76.5212 111.615 75.7942C113.633 73.5939 117.016 71.8522 120.406 71.2559C120.792 71.2017 122.077 71.0896 123.28 71.006C126.744 70.8102 129.194 71.3214 131.695 72.801C133.579 73.9052 136.59 76.6993 136.397 77.1542C136.264 77.4295 130.196 82.8343 129.779 83.0298C129.522 83.1515 129.323 83.0767 128.893 82.6923C126.226 80.2777 125.22 79.8201 122.986 79.9972C121.395 80.1182 120.582 80.4207 119.624 81.2741C118.62 82.1681 118.241 83.3679 118.46 84.9286C118.798 87.2084 119.821 88.1598 123.267 89.3012C125.492 90.0324 127.389 90.6214 127.523 90.6026C127.724 90.5743 132.339 92.1161 133.558 92.6294C139.225 94.9645 141.8 97.8198 143.118 103.179C144.096 107.217 143.464 111.122 141.319 114.127V114.127Z" fill="white"/>
<defs>
<linearGradient id="paint0_linear_1494_1809" x1="10.1817" y1="-1.37663" x2="127.337" y2="201.033" gradientUnits="userSpaceOnUse">
<stop offset="0.42927" stop-color="#DAE9F5"/>
<stop offset="1" stop-color="#EAF2F9" stop-opacity="0.95"/>
</linearGradient>
</defs>
</svg>
